<mxfile host="app.diagrams.net" agent="Mozilla/5.0 (Windows NT 10.0; Win64; x64) AppleWebKit/537.36 (KHTML, like Gecko) Chrome/132.0.0.0 YaBrowser/25.2.0.0 Safari/537.36" version="26.2.14">
  <diagram name="Страница — 1" id="Opd2-NLz_O-x1exO8FRs">
    <mxGraphModel dx="2316" dy="1998" grid="1" gridSize="10" guides="1" tooltips="1" connect="1" arrows="1" fold="1" page="1" pageScale="1" pageWidth="827" pageHeight="1169" math="0" shadow="0">
      <root>
        <mxCell id="0" />
        <mxCell id="1" parent="0" />
        <mxCell id="H-ww-GWf8KUEXEwBeiiC-182" value="" style="rounded=0;whiteSpace=wrap;html=1;" vertex="1" parent="1">
          <mxGeometry x="4" width="1000" height="1000" as="geometry" />
        </mxCell>
        <mxCell id="H-ww-GWf8KUEXEwBeiiC-183" value="" style="rounded=0;whiteSpace=wrap;html=1;" vertex="1" parent="1">
          <mxGeometry x="904" y="900" width="100" height="100" as="geometry" />
        </mxCell>
        <mxCell id="H-ww-GWf8KUEXEwBeiiC-184" value="" style="rounded=0;whiteSpace=wrap;html=1;" vertex="1" parent="1">
          <mxGeometry x="904" y="800" width="100" height="100" as="geometry" />
        </mxCell>
        <mxCell id="H-ww-GWf8KUEXEwBeiiC-185" value="" style="rounded=0;whiteSpace=wrap;html=1;" vertex="1" parent="1">
          <mxGeometry x="904" y="700" width="100" height="100" as="geometry" />
        </mxCell>
        <mxCell id="H-ww-GWf8KUEXEwBeiiC-186" value="" style="rounded=0;whiteSpace=wrap;html=1;" vertex="1" parent="1">
          <mxGeometry x="904" y="600" width="100" height="100" as="geometry" />
        </mxCell>
        <mxCell id="H-ww-GWf8KUEXEwBeiiC-187" value="" style="rounded=0;whiteSpace=wrap;html=1;" vertex="1" parent="1">
          <mxGeometry x="904" y="500" width="100" height="100" as="geometry" />
        </mxCell>
        <mxCell id="H-ww-GWf8KUEXEwBeiiC-188" value="" style="rounded=0;whiteSpace=wrap;html=1;" vertex="1" parent="1">
          <mxGeometry x="904" y="400" width="100" height="100" as="geometry" />
        </mxCell>
        <mxCell id="H-ww-GWf8KUEXEwBeiiC-189" value="" style="rounded=0;whiteSpace=wrap;html=1;" vertex="1" parent="1">
          <mxGeometry x="904" y="300" width="100" height="100" as="geometry" />
        </mxCell>
        <mxCell id="H-ww-GWf8KUEXEwBeiiC-190" value="" style="rounded=0;whiteSpace=wrap;html=1;" vertex="1" parent="1">
          <mxGeometry x="904" y="200" width="100" height="100" as="geometry" />
        </mxCell>
        <mxCell id="H-ww-GWf8KUEXEwBeiiC-191" value="" style="rounded=0;whiteSpace=wrap;html=1;" vertex="1" parent="1">
          <mxGeometry x="904" y="100" width="100" height="100" as="geometry" />
        </mxCell>
        <mxCell id="H-ww-GWf8KUEXEwBeiiC-192" value="" style="rounded=0;whiteSpace=wrap;html=1;" vertex="1" parent="1">
          <mxGeometry x="904" width="100" height="100" as="geometry" />
        </mxCell>
        <mxCell id="H-ww-GWf8KUEXEwBeiiC-193" value="" style="rounded=0;whiteSpace=wrap;html=1;" vertex="1" parent="1">
          <mxGeometry x="804" y="900" width="100" height="100" as="geometry" />
        </mxCell>
        <mxCell id="H-ww-GWf8KUEXEwBeiiC-194" value="" style="rounded=0;whiteSpace=wrap;html=1;" vertex="1" parent="1">
          <mxGeometry x="804" y="800" width="100" height="100" as="geometry" />
        </mxCell>
        <mxCell id="H-ww-GWf8KUEXEwBeiiC-195" value="" style="rounded=0;whiteSpace=wrap;html=1;" vertex="1" parent="1">
          <mxGeometry x="804" y="700" width="100" height="100" as="geometry" />
        </mxCell>
        <mxCell id="H-ww-GWf8KUEXEwBeiiC-196" value="" style="rounded=0;whiteSpace=wrap;html=1;" vertex="1" parent="1">
          <mxGeometry x="804" y="600" width="100" height="100" as="geometry" />
        </mxCell>
        <mxCell id="H-ww-GWf8KUEXEwBeiiC-197" value="" style="rounded=0;whiteSpace=wrap;html=1;" vertex="1" parent="1">
          <mxGeometry x="804" y="500" width="100" height="100" as="geometry" />
        </mxCell>
        <mxCell id="H-ww-GWf8KUEXEwBeiiC-198" value="" style="rounded=0;whiteSpace=wrap;html=1;" vertex="1" parent="1">
          <mxGeometry x="804" y="400" width="100" height="100" as="geometry" />
        </mxCell>
        <mxCell id="H-ww-GWf8KUEXEwBeiiC-199" value="" style="rounded=0;whiteSpace=wrap;html=1;" vertex="1" parent="1">
          <mxGeometry x="804" y="300" width="100" height="100" as="geometry" />
        </mxCell>
        <mxCell id="H-ww-GWf8KUEXEwBeiiC-200" value="" style="rounded=0;whiteSpace=wrap;html=1;" vertex="1" parent="1">
          <mxGeometry x="804" y="200" width="100" height="100" as="geometry" />
        </mxCell>
        <mxCell id="H-ww-GWf8KUEXEwBeiiC-201" value="" style="rounded=0;whiteSpace=wrap;html=1;" vertex="1" parent="1">
          <mxGeometry x="804" y="100" width="100" height="100" as="geometry" />
        </mxCell>
        <mxCell id="H-ww-GWf8KUEXEwBeiiC-202" value="" style="rounded=0;whiteSpace=wrap;html=1;" vertex="1" parent="1">
          <mxGeometry x="804" width="100" height="100" as="geometry" />
        </mxCell>
        <mxCell id="H-ww-GWf8KUEXEwBeiiC-203" value="" style="rounded=0;whiteSpace=wrap;html=1;" vertex="1" parent="1">
          <mxGeometry x="704" y="900" width="100" height="100" as="geometry" />
        </mxCell>
        <mxCell id="H-ww-GWf8KUEXEwBeiiC-204" value="" style="rounded=0;whiteSpace=wrap;html=1;" vertex="1" parent="1">
          <mxGeometry x="704" y="800" width="100" height="100" as="geometry" />
        </mxCell>
        <mxCell id="H-ww-GWf8KUEXEwBeiiC-205" value="" style="rounded=0;whiteSpace=wrap;html=1;" vertex="1" parent="1">
          <mxGeometry x="704" y="700" width="100" height="100" as="geometry" />
        </mxCell>
        <mxCell id="H-ww-GWf8KUEXEwBeiiC-206" value="" style="rounded=0;whiteSpace=wrap;html=1;" vertex="1" parent="1">
          <mxGeometry x="704" y="600" width="100" height="100" as="geometry" />
        </mxCell>
        <mxCell id="H-ww-GWf8KUEXEwBeiiC-207" value="" style="rounded=0;whiteSpace=wrap;html=1;" vertex="1" parent="1">
          <mxGeometry x="704" y="500" width="100" height="100" as="geometry" />
        </mxCell>
        <mxCell id="H-ww-GWf8KUEXEwBeiiC-208" value="" style="rounded=0;whiteSpace=wrap;html=1;" vertex="1" parent="1">
          <mxGeometry x="704" y="400" width="100" height="100" as="geometry" />
        </mxCell>
        <mxCell id="H-ww-GWf8KUEXEwBeiiC-209" value="" style="rounded=0;whiteSpace=wrap;html=1;" vertex="1" parent="1">
          <mxGeometry x="704" y="300" width="100" height="100" as="geometry" />
        </mxCell>
        <mxCell id="H-ww-GWf8KUEXEwBeiiC-210" value="" style="rounded=0;whiteSpace=wrap;html=1;" vertex="1" parent="1">
          <mxGeometry x="704" y="200" width="100" height="100" as="geometry" />
        </mxCell>
        <mxCell id="H-ww-GWf8KUEXEwBeiiC-211" value="" style="rounded=0;whiteSpace=wrap;html=1;" vertex="1" parent="1">
          <mxGeometry x="704" y="100" width="100" height="100" as="geometry" />
        </mxCell>
        <mxCell id="H-ww-GWf8KUEXEwBeiiC-212" value="" style="rounded=0;whiteSpace=wrap;html=1;" vertex="1" parent="1">
          <mxGeometry x="704" width="100" height="100" as="geometry" />
        </mxCell>
        <mxCell id="H-ww-GWf8KUEXEwBeiiC-213" value="" style="rounded=0;whiteSpace=wrap;html=1;" vertex="1" parent="1">
          <mxGeometry x="604" y="900" width="100" height="100" as="geometry" />
        </mxCell>
        <mxCell id="H-ww-GWf8KUEXEwBeiiC-214" value="" style="rounded=0;whiteSpace=wrap;html=1;" vertex="1" parent="1">
          <mxGeometry x="604" y="800" width="100" height="100" as="geometry" />
        </mxCell>
        <mxCell id="H-ww-GWf8KUEXEwBeiiC-215" value="" style="rounded=0;whiteSpace=wrap;html=1;" vertex="1" parent="1">
          <mxGeometry x="604" y="700" width="100" height="100" as="geometry" />
        </mxCell>
        <mxCell id="H-ww-GWf8KUEXEwBeiiC-216" value="" style="rounded=0;whiteSpace=wrap;html=1;" vertex="1" parent="1">
          <mxGeometry x="604" y="600" width="100" height="100" as="geometry" />
        </mxCell>
        <mxCell id="H-ww-GWf8KUEXEwBeiiC-217" value="" style="rounded=0;whiteSpace=wrap;html=1;" vertex="1" parent="1">
          <mxGeometry x="604" y="500" width="100" height="100" as="geometry" />
        </mxCell>
        <mxCell id="H-ww-GWf8KUEXEwBeiiC-218" value="" style="rounded=0;whiteSpace=wrap;html=1;" vertex="1" parent="1">
          <mxGeometry x="604" y="400" width="100" height="100" as="geometry" />
        </mxCell>
        <mxCell id="H-ww-GWf8KUEXEwBeiiC-219" value="" style="rounded=0;whiteSpace=wrap;html=1;" vertex="1" parent="1">
          <mxGeometry x="604" y="300" width="100" height="100" as="geometry" />
        </mxCell>
        <mxCell id="H-ww-GWf8KUEXEwBeiiC-220" value="" style="rounded=0;whiteSpace=wrap;html=1;" vertex="1" parent="1">
          <mxGeometry x="604" y="200" width="100" height="100" as="geometry" />
        </mxCell>
        <mxCell id="H-ww-GWf8KUEXEwBeiiC-221" value="" style="rounded=0;whiteSpace=wrap;html=1;" vertex="1" parent="1">
          <mxGeometry x="604" y="100" width="100" height="100" as="geometry" />
        </mxCell>
        <mxCell id="H-ww-GWf8KUEXEwBeiiC-222" value="" style="rounded=0;whiteSpace=wrap;html=1;" vertex="1" parent="1">
          <mxGeometry x="604" width="100" height="100" as="geometry" />
        </mxCell>
        <mxCell id="H-ww-GWf8KUEXEwBeiiC-223" value="" style="rounded=0;whiteSpace=wrap;html=1;" vertex="1" parent="1">
          <mxGeometry x="504" y="900" width="100" height="100" as="geometry" />
        </mxCell>
        <mxCell id="H-ww-GWf8KUEXEwBeiiC-224" value="" style="rounded=0;whiteSpace=wrap;html=1;" vertex="1" parent="1">
          <mxGeometry x="504" y="800" width="100" height="100" as="geometry" />
        </mxCell>
        <mxCell id="H-ww-GWf8KUEXEwBeiiC-225" value="" style="rounded=0;whiteSpace=wrap;html=1;" vertex="1" parent="1">
          <mxGeometry x="504" y="700" width="100" height="100" as="geometry" />
        </mxCell>
        <mxCell id="H-ww-GWf8KUEXEwBeiiC-226" value="" style="rounded=0;whiteSpace=wrap;html=1;" vertex="1" parent="1">
          <mxGeometry x="504" y="600" width="100" height="100" as="geometry" />
        </mxCell>
        <mxCell id="H-ww-GWf8KUEXEwBeiiC-227" value="" style="rounded=0;whiteSpace=wrap;html=1;" vertex="1" parent="1">
          <mxGeometry x="504" y="500" width="100" height="100" as="geometry" />
        </mxCell>
        <mxCell id="H-ww-GWf8KUEXEwBeiiC-228" value="" style="rounded=0;whiteSpace=wrap;html=1;" vertex="1" parent="1">
          <mxGeometry x="504" y="400" width="100" height="100" as="geometry" />
        </mxCell>
        <mxCell id="H-ww-GWf8KUEXEwBeiiC-229" value="" style="rounded=0;whiteSpace=wrap;html=1;" vertex="1" parent="1">
          <mxGeometry x="504" y="300" width="100" height="100" as="geometry" />
        </mxCell>
        <mxCell id="H-ww-GWf8KUEXEwBeiiC-230" value="" style="rounded=0;whiteSpace=wrap;html=1;" vertex="1" parent="1">
          <mxGeometry x="504" y="200" width="100" height="100" as="geometry" />
        </mxCell>
        <mxCell id="H-ww-GWf8KUEXEwBeiiC-231" value="" style="rounded=0;whiteSpace=wrap;html=1;" vertex="1" parent="1">
          <mxGeometry x="504" y="100" width="100" height="100" as="geometry" />
        </mxCell>
        <mxCell id="H-ww-GWf8KUEXEwBeiiC-232" value="" style="rounded=0;whiteSpace=wrap;html=1;" vertex="1" parent="1">
          <mxGeometry x="504" width="100" height="100" as="geometry" />
        </mxCell>
        <mxCell id="H-ww-GWf8KUEXEwBeiiC-233" value="" style="rounded=0;whiteSpace=wrap;html=1;" vertex="1" parent="1">
          <mxGeometry x="904" y="900" width="100" height="100" as="geometry" />
        </mxCell>
        <mxCell id="H-ww-GWf8KUEXEwBeiiC-234" value="" style="rounded=0;whiteSpace=wrap;html=1;" vertex="1" parent="1">
          <mxGeometry x="904" y="800" width="100" height="100" as="geometry" />
        </mxCell>
        <mxCell id="H-ww-GWf8KUEXEwBeiiC-235" value="" style="rounded=0;whiteSpace=wrap;html=1;" vertex="1" parent="1">
          <mxGeometry x="904" y="700" width="100" height="100" as="geometry" />
        </mxCell>
        <mxCell id="H-ww-GWf8KUEXEwBeiiC-236" value="" style="rounded=0;whiteSpace=wrap;html=1;" vertex="1" parent="1">
          <mxGeometry x="904" y="600" width="100" height="100" as="geometry" />
        </mxCell>
        <mxCell id="H-ww-GWf8KUEXEwBeiiC-237" value="" style="rounded=0;whiteSpace=wrap;html=1;" vertex="1" parent="1">
          <mxGeometry x="904" y="500" width="100" height="100" as="geometry" />
        </mxCell>
        <mxCell id="H-ww-GWf8KUEXEwBeiiC-238" value="" style="rounded=0;whiteSpace=wrap;html=1;" vertex="1" parent="1">
          <mxGeometry x="904" y="400" width="100" height="100" as="geometry" />
        </mxCell>
        <mxCell id="H-ww-GWf8KUEXEwBeiiC-239" value="" style="rounded=0;whiteSpace=wrap;html=1;" vertex="1" parent="1">
          <mxGeometry x="904" y="300" width="100" height="100" as="geometry" />
        </mxCell>
        <mxCell id="H-ww-GWf8KUEXEwBeiiC-240" value="" style="rounded=0;whiteSpace=wrap;html=1;" vertex="1" parent="1">
          <mxGeometry x="904" y="200" width="100" height="100" as="geometry" />
        </mxCell>
        <mxCell id="H-ww-GWf8KUEXEwBeiiC-241" value="" style="rounded=0;whiteSpace=wrap;html=1;" vertex="1" parent="1">
          <mxGeometry x="904" y="100" width="100" height="100" as="geometry" />
        </mxCell>
        <mxCell id="H-ww-GWf8KUEXEwBeiiC-242" value="" style="rounded=0;whiteSpace=wrap;html=1;" vertex="1" parent="1">
          <mxGeometry x="904" width="100" height="100" as="geometry" />
        </mxCell>
        <mxCell id="H-ww-GWf8KUEXEwBeiiC-243" value="" style="rounded=0;whiteSpace=wrap;html=1;" vertex="1" parent="1">
          <mxGeometry x="404" y="900" width="100" height="100" as="geometry" />
        </mxCell>
        <mxCell id="H-ww-GWf8KUEXEwBeiiC-244" value="" style="rounded=0;whiteSpace=wrap;html=1;" vertex="1" parent="1">
          <mxGeometry x="404" y="800" width="100" height="100" as="geometry" />
        </mxCell>
        <mxCell id="H-ww-GWf8KUEXEwBeiiC-245" value="" style="rounded=0;whiteSpace=wrap;html=1;" vertex="1" parent="1">
          <mxGeometry x="404" y="700" width="100" height="100" as="geometry" />
        </mxCell>
        <mxCell id="H-ww-GWf8KUEXEwBeiiC-246" value="" style="rounded=0;whiteSpace=wrap;html=1;" vertex="1" parent="1">
          <mxGeometry x="404" y="600" width="100" height="100" as="geometry" />
        </mxCell>
        <mxCell id="H-ww-GWf8KUEXEwBeiiC-247" value="" style="rounded=0;whiteSpace=wrap;html=1;" vertex="1" parent="1">
          <mxGeometry x="404" y="500" width="100" height="100" as="geometry" />
        </mxCell>
        <mxCell id="H-ww-GWf8KUEXEwBeiiC-248" value="" style="rounded=0;whiteSpace=wrap;html=1;" vertex="1" parent="1">
          <mxGeometry x="404" y="400" width="100" height="100" as="geometry" />
        </mxCell>
        <mxCell id="H-ww-GWf8KUEXEwBeiiC-249" value="" style="rounded=0;whiteSpace=wrap;html=1;" vertex="1" parent="1">
          <mxGeometry x="404" y="300" width="100" height="100" as="geometry" />
        </mxCell>
        <mxCell id="H-ww-GWf8KUEXEwBeiiC-250" value="" style="rounded=0;whiteSpace=wrap;html=1;" vertex="1" parent="1">
          <mxGeometry x="404" y="200" width="100" height="100" as="geometry" />
        </mxCell>
        <mxCell id="H-ww-GWf8KUEXEwBeiiC-251" value="" style="rounded=0;whiteSpace=wrap;html=1;" vertex="1" parent="1">
          <mxGeometry x="404" y="100" width="100" height="100" as="geometry" />
        </mxCell>
        <mxCell id="H-ww-GWf8KUEXEwBeiiC-252" value="" style="rounded=0;whiteSpace=wrap;html=1;" vertex="1" parent="1">
          <mxGeometry x="404" width="100" height="100" as="geometry" />
        </mxCell>
        <mxCell id="H-ww-GWf8KUEXEwBeiiC-253" value="" style="rounded=0;whiteSpace=wrap;html=1;" vertex="1" parent="1">
          <mxGeometry x="304" y="900" width="100" height="100" as="geometry" />
        </mxCell>
        <mxCell id="H-ww-GWf8KUEXEwBeiiC-254" value="" style="rounded=0;whiteSpace=wrap;html=1;" vertex="1" parent="1">
          <mxGeometry x="304" y="800" width="100" height="100" as="geometry" />
        </mxCell>
        <mxCell id="H-ww-GWf8KUEXEwBeiiC-255" value="" style="rounded=0;whiteSpace=wrap;html=1;" vertex="1" parent="1">
          <mxGeometry x="304" y="700" width="100" height="100" as="geometry" />
        </mxCell>
        <mxCell id="H-ww-GWf8KUEXEwBeiiC-256" value="" style="rounded=0;whiteSpace=wrap;html=1;" vertex="1" parent="1">
          <mxGeometry x="304" y="600" width="100" height="100" as="geometry" />
        </mxCell>
        <mxCell id="H-ww-GWf8KUEXEwBeiiC-257" value="" style="rounded=0;whiteSpace=wrap;html=1;" vertex="1" parent="1">
          <mxGeometry x="304" y="500" width="100" height="100" as="geometry" />
        </mxCell>
        <mxCell id="H-ww-GWf8KUEXEwBeiiC-258" value="" style="rounded=0;whiteSpace=wrap;html=1;" vertex="1" parent="1">
          <mxGeometry x="304" y="400" width="100" height="100" as="geometry" />
        </mxCell>
        <mxCell id="H-ww-GWf8KUEXEwBeiiC-259" value="" style="rounded=0;whiteSpace=wrap;html=1;" vertex="1" parent="1">
          <mxGeometry x="304" y="300" width="100" height="100" as="geometry" />
        </mxCell>
        <mxCell id="H-ww-GWf8KUEXEwBeiiC-260" value="" style="rounded=0;whiteSpace=wrap;html=1;" vertex="1" parent="1">
          <mxGeometry x="304" y="200" width="100" height="100" as="geometry" />
        </mxCell>
        <mxCell id="H-ww-GWf8KUEXEwBeiiC-261" value="" style="rounded=0;whiteSpace=wrap;html=1;" vertex="1" parent="1">
          <mxGeometry x="304" y="100" width="100" height="100" as="geometry" />
        </mxCell>
        <mxCell id="H-ww-GWf8KUEXEwBeiiC-262" value="" style="rounded=0;whiteSpace=wrap;html=1;" vertex="1" parent="1">
          <mxGeometry x="304" width="100" height="100" as="geometry" />
        </mxCell>
        <mxCell id="H-ww-GWf8KUEXEwBeiiC-263" value="" style="rounded=0;whiteSpace=wrap;html=1;" vertex="1" parent="1">
          <mxGeometry x="204" y="900" width="100" height="100" as="geometry" />
        </mxCell>
        <mxCell id="H-ww-GWf8KUEXEwBeiiC-264" value="" style="rounded=0;whiteSpace=wrap;html=1;" vertex="1" parent="1">
          <mxGeometry x="204" y="800" width="100" height="100" as="geometry" />
        </mxCell>
        <mxCell id="H-ww-GWf8KUEXEwBeiiC-265" value="" style="rounded=0;whiteSpace=wrap;html=1;" vertex="1" parent="1">
          <mxGeometry x="204" y="700" width="100" height="100" as="geometry" />
        </mxCell>
        <mxCell id="H-ww-GWf8KUEXEwBeiiC-266" value="" style="rounded=0;whiteSpace=wrap;html=1;" vertex="1" parent="1">
          <mxGeometry x="204" y="600" width="100" height="100" as="geometry" />
        </mxCell>
        <mxCell id="H-ww-GWf8KUEXEwBeiiC-267" value="" style="rounded=0;whiteSpace=wrap;html=1;" vertex="1" parent="1">
          <mxGeometry x="204" y="500" width="100" height="100" as="geometry" />
        </mxCell>
        <mxCell id="H-ww-GWf8KUEXEwBeiiC-268" value="" style="rounded=0;whiteSpace=wrap;html=1;" vertex="1" parent="1">
          <mxGeometry x="204" y="400" width="100" height="100" as="geometry" />
        </mxCell>
        <mxCell id="H-ww-GWf8KUEXEwBeiiC-269" value="" style="rounded=0;whiteSpace=wrap;html=1;" vertex="1" parent="1">
          <mxGeometry x="204" y="300" width="100" height="100" as="geometry" />
        </mxCell>
        <mxCell id="H-ww-GWf8KUEXEwBeiiC-270" value="" style="rounded=0;whiteSpace=wrap;html=1;" vertex="1" parent="1">
          <mxGeometry x="204" y="200" width="100" height="100" as="geometry" />
        </mxCell>
        <mxCell id="H-ww-GWf8KUEXEwBeiiC-271" value="" style="rounded=0;whiteSpace=wrap;html=1;" vertex="1" parent="1">
          <mxGeometry x="204" y="100" width="100" height="100" as="geometry" />
        </mxCell>
        <mxCell id="H-ww-GWf8KUEXEwBeiiC-272" value="" style="rounded=0;whiteSpace=wrap;html=1;" vertex="1" parent="1">
          <mxGeometry x="204" width="100" height="100" as="geometry" />
        </mxCell>
        <mxCell id="H-ww-GWf8KUEXEwBeiiC-273" value="" style="rounded=0;whiteSpace=wrap;html=1;" vertex="1" parent="1">
          <mxGeometry x="104" y="900" width="100" height="100" as="geometry" />
        </mxCell>
        <mxCell id="H-ww-GWf8KUEXEwBeiiC-274" value="" style="rounded=0;whiteSpace=wrap;html=1;" vertex="1" parent="1">
          <mxGeometry x="104" y="800" width="100" height="100" as="geometry" />
        </mxCell>
        <mxCell id="H-ww-GWf8KUEXEwBeiiC-275" value="" style="rounded=0;whiteSpace=wrap;html=1;" vertex="1" parent="1">
          <mxGeometry x="104" y="700" width="100" height="100" as="geometry" />
        </mxCell>
        <mxCell id="H-ww-GWf8KUEXEwBeiiC-276" value="" style="rounded=0;whiteSpace=wrap;html=1;" vertex="1" parent="1">
          <mxGeometry x="104" y="600" width="100" height="100" as="geometry" />
        </mxCell>
        <mxCell id="H-ww-GWf8KUEXEwBeiiC-277" value="" style="rounded=0;whiteSpace=wrap;html=1;" vertex="1" parent="1">
          <mxGeometry x="104" y="500" width="100" height="100" as="geometry" />
        </mxCell>
        <mxCell id="H-ww-GWf8KUEXEwBeiiC-278" value="" style="rounded=0;whiteSpace=wrap;html=1;" vertex="1" parent="1">
          <mxGeometry x="104" y="400" width="100" height="100" as="geometry" />
        </mxCell>
        <mxCell id="H-ww-GWf8KUEXEwBeiiC-279" value="" style="rounded=0;whiteSpace=wrap;html=1;" vertex="1" parent="1">
          <mxGeometry x="104" y="300" width="100" height="100" as="geometry" />
        </mxCell>
        <mxCell id="H-ww-GWf8KUEXEwBeiiC-280" value="" style="rounded=0;whiteSpace=wrap;html=1;" vertex="1" parent="1">
          <mxGeometry x="104" y="200" width="100" height="100" as="geometry" />
        </mxCell>
        <mxCell id="H-ww-GWf8KUEXEwBeiiC-281" value="" style="rounded=0;whiteSpace=wrap;html=1;" vertex="1" parent="1">
          <mxGeometry x="104" y="100" width="100" height="100" as="geometry" />
        </mxCell>
        <mxCell id="H-ww-GWf8KUEXEwBeiiC-282" value="" style="rounded=0;whiteSpace=wrap;html=1;" vertex="1" parent="1">
          <mxGeometry x="104" width="100" height="100" as="geometry" />
        </mxCell>
        <mxCell id="H-ww-GWf8KUEXEwBeiiC-283" value="" style="rounded=0;whiteSpace=wrap;html=1;" vertex="1" parent="1">
          <mxGeometry x="4" y="900" width="100" height="100" as="geometry" />
        </mxCell>
        <mxCell id="H-ww-GWf8KUEXEwBeiiC-284" value="" style="rounded=0;whiteSpace=wrap;html=1;" vertex="1" parent="1">
          <mxGeometry x="4" y="800" width="100" height="100" as="geometry" />
        </mxCell>
        <mxCell id="H-ww-GWf8KUEXEwBeiiC-285" value="" style="rounded=0;whiteSpace=wrap;html=1;" vertex="1" parent="1">
          <mxGeometry x="4" y="700" width="100" height="100" as="geometry" />
        </mxCell>
        <mxCell id="H-ww-GWf8KUEXEwBeiiC-286" value="" style="rounded=0;whiteSpace=wrap;html=1;" vertex="1" parent="1">
          <mxGeometry x="4" y="600" width="100" height="100" as="geometry" />
        </mxCell>
        <mxCell id="H-ww-GWf8KUEXEwBeiiC-287" value="" style="rounded=0;whiteSpace=wrap;html=1;" vertex="1" parent="1">
          <mxGeometry x="4" y="500" width="100" height="100" as="geometry" />
        </mxCell>
        <mxCell id="H-ww-GWf8KUEXEwBeiiC-288" value="" style="rounded=0;whiteSpace=wrap;html=1;" vertex="1" parent="1">
          <mxGeometry x="4" y="400" width="100" height="100" as="geometry" />
        </mxCell>
        <mxCell id="H-ww-GWf8KUEXEwBeiiC-289" value="" style="rounded=0;whiteSpace=wrap;html=1;" vertex="1" parent="1">
          <mxGeometry x="4" y="300" width="100" height="100" as="geometry" />
        </mxCell>
        <mxCell id="H-ww-GWf8KUEXEwBeiiC-290" value="" style="rounded=0;whiteSpace=wrap;html=1;" vertex="1" parent="1">
          <mxGeometry x="4" y="200" width="100" height="100" as="geometry" />
        </mxCell>
        <mxCell id="H-ww-GWf8KUEXEwBeiiC-291" value="" style="rounded=0;whiteSpace=wrap;html=1;" vertex="1" parent="1">
          <mxGeometry x="4" y="100" width="100" height="100" as="geometry" />
        </mxCell>
        <mxCell id="H-ww-GWf8KUEXEwBeiiC-292" value="" style="rounded=0;whiteSpace=wrap;html=1;" vertex="1" parent="1">
          <mxGeometry x="4" width="100" height="100" as="geometry" />
        </mxCell>
        <mxCell id="H-ww-GWf8KUEXEwBeiiC-293" value="" style="endArrow=classic;html=1;rounded=0;exitX=1;exitY=0;exitDx=0;exitDy=0;" edge="1" parent="1" source="H-ww-GWf8KUEXEwBeiiC-242">
          <mxGeometry width="50" height="50" relative="1" as="geometry">
            <mxPoint x="474" y="380" as="sourcePoint" />
            <mxPoint x="1004" y="1100" as="targetPoint" />
          </mxGeometry>
        </mxCell>
        <mxCell id="H-ww-GWf8KUEXEwBeiiC-294" value="" style="endArrow=classic;html=1;rounded=0;exitX=1;exitY=0;exitDx=0;exitDy=0;" edge="1" parent="1" source="H-ww-GWf8KUEXEwBeiiC-242">
          <mxGeometry width="50" height="50" relative="1" as="geometry">
            <mxPoint x="1004" as="sourcePoint" />
            <mxPoint x="-96" as="targetPoint" />
          </mxGeometry>
        </mxCell>
        <mxCell id="H-ww-GWf8KUEXEwBeiiC-295" value="&lt;font style=&quot;font-size: 56px;&quot; face=&quot;Times New Roman&quot;&gt;Y&lt;/font&gt;" style="text;html=1;align=center;verticalAlign=middle;resizable=0;points=[];autosize=1;strokeColor=none;fillColor=none;" vertex="1" parent="1">
          <mxGeometry x="930" y="1023" width="60" height="80" as="geometry" />
        </mxCell>
        <mxCell id="H-ww-GWf8KUEXEwBeiiC-296" value="X" style="text;html=1;align=center;verticalAlign=middle;resizable=0;points=[];autosize=1;strokeColor=none;fillColor=none;fontFamily=Times New Roman;fontSize=56;" vertex="1" parent="1">
          <mxGeometry x="-100" y="10" width="60" height="80" as="geometry" />
        </mxCell>
      </root>
    </mxGraphModel>
  </diagram>
</mxfile>
